<svg viewBox="880 8 46 46" xmlns="http://www.w3.org/2000/svg" xmlns:xlink="http://www.w3.org/1999/xlink"><defs><path d="M46 23.28C46 10.3 35.7 0 22.72 0 10.3 0 0 10.3 0 23.28 0 35.7 10.3 46 22.72 46 35.7 46 46 35.7 46 23.28z" id="a"/><mask id="b" x="0" y="0" width="46" height="46" fill="#fff"><use xlink:href="#a"/></mask></defs><g fill="none" fill-rule="evenodd" transform="translate(880 8)"><use stroke="#C9C9C9" mask="url(#b)" stroke-width="4" fill="#E1E1E1" xlink:href="#a"/><path d="M11.3 23.95c-.37-.4-.4-1.08-.1-1.52l.17-.2c.33-.45.95-.54 1.4-.2l5 3.82c.45.33 1.14.33 1.57-.03L33.3 14.24c.44-.35 1.1-.3 1.5.07l-.1-.08c.4.4.4 1.02 0 1.4l-15.4 15.1c-.4.4-1.04.38-1.42 0l-6.57-6.77z" fill="#ADADAD"/></g></svg>
