<svg viewBox="0 0 1024 1024" xmlns="http://www.w3.org/2000/svg"><path d="M511.9 64.6C265.7 64.6 65.4 264.9 65.4 511.1S265.7 957.55 511.9 957.55 958.34 757.28 958.34 511.1 758.07 64.6 511.9 64.6zM760.96 378.1L520.22 641.15l-31.6 34.53-.05.06c-8.7 9.5-23.57 10.15-33.06 1.47l-.05-.05-34.53-31.6L306.8 541.1c-9.5-8.68-10.16-23.56-1.47-33.05l.06-.06c8.68-9.5 23.55-10.16 33.05-1.48l114.12 104.45c9.5 8.7 24.38 8.03 33.06-1.47l240.75-263.07c8.7-9.5 23.56-10.15 33.06-1.46l.06.05c9.5 8.7 10.15 23.57 1.47 33.06z" fill="#09BB07"/></svg>