<svg xmlns="http://www.w3.org/2000/svg" viewBox="0 0 14 14"><g fill="none" fill-rule="evenodd"><path d="M0 0h14v14H0"/><path fill="#CCC" d="M14 7c0 3.866-3.134 7-7 7s-7-3.134-7-7 3.134-7 7-7 7 3.134 7 7zM5.03 3.97c-.293-.293-.767-.293-1.06 0-.293.292-.293.768 0 1.06L5.94 7 3.97 8.97c-.293.292-.293.768 0 1.06.293.293.767.293 1.06 0L7 8.06l1.97 1.97c.293.293.767.293 1.06 0 .293-.292.293-.768 0-1.06L8.06 7l1.97-1.97c.293-.292.293-.768 0-1.06-.293-.293-.767-.293-1.06 0L7 5.94 5.03 3.97z"/></g></svg>